<svg width="25" height="24" viewBox="0 0 25 24" fill="none" xmlns="http://www.w3.org/2000/svg">
<path d="M2.5 10C2.5 9.46957 2.71071 8.96086 3.08579 8.58579C3.46086 8.21071 3.96957 8 4.5 8H20.5C21.0304 8 21.5391 8.21071 21.9142 8.58579C22.2893 8.96086 22.5 9.46957 22.5 10V17C22.5 17.5304 22.2893 18.0391 21.9142 18.4142C21.5391 18.7893 21.0304 19 20.5 19H16.632C16.2866 19 15.9471 18.9106 15.6466 18.7404C15.3461 18.5702 15.0947 18.3252 14.917 18.029L13.357 15.429C13.2681 15.2811 13.1425 15.1588 12.9923 15.0739C12.8421 14.989 12.6725 14.9443 12.5 14.9443C12.3275 14.9443 12.1579 14.989 12.0077 15.0739C11.8575 15.1588 11.7319 15.2811 11.643 15.429L10.083 18.029C9.90531 18.3252 9.65395 18.5702 9.3534 18.7404C9.05286 18.9106 8.71337 19 8.368 19H4.5C3.96957 19 3.46086 18.7893 3.08579 18.4142C2.71071 18.0391 2.5 17.5304 2.5 17V10ZM4.313 6.781C4.67819 6.23329 5.17291 5.78418 5.75327 5.4735C6.33364 5.16282 6.98171 5.00018 7.64 5H17.358C18.0165 5.00001 18.6647 5.16257 19.2453 5.47326C19.8258 5.78395 20.3207 6.23315 20.686 6.781L21.5 8H3.5L4.313 6.781Z" stroke="white" stroke-width="2" stroke-linecap="round" stroke-linejoin="round"/>
</svg>
