<svg width="339" height="68" viewBox="0 0 339 68" fill="none" xmlns="http://www.w3.org/2000/svg">
<path fill-rule="evenodd" clip-rule="evenodd" d="M170 43.8963C186.528 43.8963 199.927 30.4978 199.927 13.9698V13.9698C199.927 7.53301 204.947 0.206706 211.349 0.873925L330.059 13.2456C335.14 13.7751 339 18.0583 339 23.1673V55.5342C339 61.9617 333.789 67.1722 327.362 67.1722H11.6381C5.21052 67.1722 0 61.9617 0 55.5342V23.1673C0 18.0583 3.86 13.7751 8.94147 13.2456L128.587 0.776355C135.024 0.105508 140.074 7.498 140.074 13.9698V13.9698C140.074 30.4978 153.472 43.8963 170 43.8963Z" fill="#1D1F20"/>
</svg>
