<svg width="37" height="26" viewBox="0 0 37 26" fill="none" xmlns="http://www.w3.org/2000/svg">
<path d="M35.1071 3.0015C34.5491 2.80795 33.9345 2.75707 33.3417 2.85535C32.7489 2.95363 32.2046 3.19662 31.7782 3.55336L27.8293 6.84164L20.8263 1.01022C20.2536 0.533457 19.4769 0.265625 18.6671 0.265625C17.8573 0.265625 17.0806 0.533457 16.5079 1.01022L9.50494 6.84164L5.55604 3.55336C5.12893 3.19781 4.58481 2.95568 3.99246 2.8576C3.40012 2.75952 2.78615 2.80988 2.22818 3.00232C1.6702 3.19476 1.19327 3.52064 0.857682 3.93875C0.522089 4.35687 0.342902 4.84845 0.342773 5.35136L0.342773 18.8122C0.345198 20.4978 1.15039 22.1138 2.58173 23.3056C4.01307 24.4975 5.95369 25.168 7.97791 25.17H29.3563C31.3805 25.168 33.3211 24.4975 34.7525 23.3056C36.1838 22.1138 36.989 20.4978 36.9914 18.8122V5.35136C36.9916 4.84842 36.8126 4.35672 36.4772 3.93846C36.1418 3.52019 35.665 3.19413 35.1071 3.0015Z" fill="#FFB931"/>
</svg>
