<svg width="21" height="20" viewBox="0 0 21 20" fill="none" xmlns="http://www.w3.org/2000/svg">
<path d="M18.7407 8.07504C18.7407 7.91705 18.7096 7.76061 18.6492 7.61465C18.5887 7.46868 18.5001 7.33606 18.3884 7.22434C18.2766 7.11263 18.144 7.02401 17.9981 6.96355C17.8521 6.90309 17.6957 6.87197 17.5377 6.87197C17.3797 6.87197 17.2232 6.90309 17.0773 6.96355C16.9313 7.02401 16.7987 7.11263 16.687 7.22434C16.5752 7.33606 16.4866 7.46868 16.4262 7.61465C16.3657 7.76061 16.3346 7.91705 16.3346 8.07504H18.7407ZM5.26629 8.07504C5.26629 7.75597 5.13954 7.44996 4.91392 7.22434C4.6883 6.99872 4.38229 6.87197 4.06321 6.87197C3.74414 6.87197 3.43813 6.99872 3.21251 7.22434C2.98689 7.44996 2.86014 7.75597 2.86014 8.07504H5.26629ZM18.6118 10.8508C18.8374 11.0764 19.1435 11.2032 19.4626 11.2032C19.7817 11.2032 20.0877 11.0764 20.3134 10.8508C20.539 10.6251 20.6658 10.3191 20.6658 9.99996C20.6658 9.68085 20.539 9.3748 20.3134 9.14915L18.6118 10.8508ZM10.8004 1.33782L11.6513 0.487006C11.5395 0.375257 11.4069 0.28661 11.2609 0.22613C11.1149 0.16565 10.9585 0.134521 10.8004 0.134521C10.6424 0.134521 10.486 0.16565 10.34 0.22613C10.194 0.28661 10.0613 0.375257 9.94962 0.487006L10.8004 1.33782ZM1.28748 9.14915C1.06183 9.3748 0.935059 9.68085 0.935059 9.99996C0.935059 10.3191 1.06183 10.6251 1.28748 10.8508C1.51313 11.0764 1.81918 11.2032 2.13829 11.2032C2.45741 11.2032 2.76346 11.0764 2.98911 10.8508L1.28748 9.14915ZM5.98813 19.8652H15.6127V17.459H5.98813V19.8652ZM18.7407 16.7372V8.07504H16.3346V16.7372H18.7407ZM5.26629 16.7372V8.07504H2.86014V16.7372H5.26629ZM20.3134 9.14915L11.6513 0.487006L9.94962 2.18864L18.6118 10.8508L20.3134 9.14915ZM9.94962 0.487006L1.28748 9.14915L2.98911 10.8508L11.6513 2.18864L9.94962 0.487006ZM15.6127 19.8652C16.4423 19.8652 17.238 19.5356 17.8246 18.949C18.4112 18.3624 18.7407 17.5668 18.7407 16.7372H16.3346C16.3346 16.9286 16.2585 17.1122 16.1232 17.2476C15.9878 17.383 15.8042 17.459 15.6127 17.459V19.8652ZM5.98813 17.459C5.79669 17.459 5.61308 17.383 5.47771 17.2476C5.34234 17.1122 5.26629 16.9286 5.26629 16.7372H2.86014C2.86014 17.5668 3.18969 18.3624 3.77631 18.949C4.36292 19.5356 5.15854 19.8652 5.98813 19.8652V17.459Z" fill="white"/>
</svg>
