<svg width="18" height="18" viewBox="0 0 18 18" fill="none" xmlns="http://www.w3.org/2000/svg">
<path d="M15.561 4.61475L10.7727 1.26464C9.46759 0.350224 7.46418 0.400101 6.20893 1.37271L2.04416 4.62306C1.21287 5.27147 0.556152 6.60153 0.556152 7.64896V13.3849C0.556152 15.5047 2.27692 17.2337 4.39672 17.2337H13.358C15.4778 17.2337 17.1986 15.513 17.1986 13.3932V7.75703C17.1986 6.63479 16.4754 5.25484 15.561 4.61475ZM9.50085 13.9086C9.50085 14.2494 9.21821 14.532 8.87738 14.532C8.53655 14.532 8.25391 14.2494 8.25391 13.9086V11.4147C8.25391 11.0739 8.53655 10.7912 8.87738 10.7912C9.21821 10.7912 9.50085 11.0739 9.50085 11.4147V13.9086Z" fill="#9DB2CE"/>
</svg>
