<svg width="46" height="47" viewBox="0 0 46 47" fill="none" xmlns="http://www.w3.org/2000/svg">
<g filter="url(#filter0_i_250_332)">
<rect x="0.0546875" y="0.356262" width="45.721" height="45.721" rx="22.8605" fill="#ED3A3A"/>
<g filter="url(#filter1_i_250_332)">
<path d="M31.2809 31.0721C30.9171 29.9526 29.8675 29.127 28.6221 29.127H27.2227V24.9288C27.2227 24.5577 27.0753 24.2018 26.8128 23.9393C26.5504 23.6769 26.1945 23.5295 25.8233 23.5295H17.427V20.7307H20.2258C20.5969 20.7307 20.9529 20.5833 21.2153 20.3208C21.4778 20.0584 21.6252 19.7024 21.6252 19.3313V16.5325H24.424C25.1662 16.5325 25.8781 16.2377 26.403 15.7128C26.9278 15.1879 27.2227 14.4761 27.2227 13.7338V13.16C28.897 13.8351 30.3829 14.9057 31.553 16.2804C32.7231 17.6551 33.5427 19.2929 33.9416 21.0535C34.3405 22.8142 34.3068 24.6453 33.8435 26.3901C33.3801 28.1349 32.5008 29.7414 31.2809 31.0721ZM21.6252 34.6265C16.0976 33.9408 11.8295 29.2389 11.8295 23.5295C11.8295 22.6618 11.9415 21.8222 12.1234 21.0246L18.8264 27.7276V29.127C18.8264 29.8693 19.1213 30.5811 19.6462 31.106C20.171 31.6309 20.8829 31.9257 21.6252 31.9257M23.0246 9.53564C21.1869 9.53564 19.3672 9.89761 17.6694 10.6009C15.9716 11.3041 14.4289 12.3349 13.1295 13.6343C10.5051 16.2587 9.03076 19.8181 9.03076 23.5295C9.03076 27.2408 10.5051 30.8002 13.1295 33.4246C14.4289 34.724 15.9716 35.7548 17.6694 36.458C19.3672 37.1613 21.1869 37.5233 23.0246 37.5233C26.736 37.5233 30.2953 36.0489 32.9197 33.4246C35.544 30.8002 37.0184 27.2408 37.0184 23.5295C37.0184 21.6918 36.6564 19.8721 35.9532 18.1743C35.2499 16.4764 34.2191 14.9338 32.9197 13.6343C31.6202 12.3349 30.0776 11.3041 28.3798 10.6009C26.682 9.89761 24.8623 9.53564 23.0246 9.53564Z" fill="white"/>
</g>
</g>
<defs>
<filter id="filter0_i_250_332" x="0.0546875" y="0.356262" width="45.7212" height="47.8201" filterUnits="userSpaceOnUse" color-interpolation-filters="sRGB">
<feFlood flood-opacity="0" result="BackgroundImageFix"/>
<feBlend mode="normal" in="SourceGraphic" in2="BackgroundImageFix" result="shape"/>
<feColorMatrix in="SourceAlpha" type="matrix" values="0 0 0 0 0 0 0 0 0 0 0 0 0 0 0 0 0 0 127 0" result="hardAlpha"/>
<feOffset dy="2.09907"/>
<feGaussianBlur stdDeviation="2.78127"/>
<feComposite in2="hardAlpha" operator="arithmetic" k2="-1" k3="1"/>
<feColorMatrix type="matrix" values="0 0 0 0 0 0 0 0 0 0 0 0 0 0 0 0 0 0 0.25 0"/>
<feBlend mode="normal" in2="shape" result="effect1_innerShadow_250_332"/>
</filter>
<filter id="filter1_i_250_332" x="6.23242" y="6.73682" width="33.585" height="35.6842" filterUnits="userSpaceOnUse" color-interpolation-filters="sRGB">
<feFlood flood-opacity="0" result="BackgroundImageFix"/>
<feBlend mode="normal" in="SourceGraphic" in2="BackgroundImageFix" result="shape"/>
<feColorMatrix in="SourceAlpha" type="matrix" values="0 0 0 0 0 0 0 0 0 0 0 0 0 0 0 0 0 0 127 0" result="hardAlpha"/>
<feOffset dy="2.09907"/>
<feGaussianBlur stdDeviation="3.67337"/>
<feComposite in2="hardAlpha" operator="arithmetic" k2="-1" k3="1"/>
<feColorMatrix type="matrix" values="0 0 0 0 0 0 0 0 0 0 0 0 0 0 0 0 0 0 0.25 0"/>
<feBlend mode="normal" in2="shape" result="effect1_innerShadow_250_332"/>
</filter>
</defs>
</svg>
