<svg width="25" height="21" viewBox="0 0 25 21" fill="none" xmlns="http://www.w3.org/2000/svg">
<path d="M24.2407 3.91865C23.488 2.54767 21.5005 2.23897 18.4847 3.01852C17.0055 1.81493 15.2218 1.10142 13.359 0.968124C11.4961 0.834825 9.63765 1.28772 8.01833 2.26959C6.399 3.25146 5.09147 4.71827 4.26087 6.48473C3.43028 8.2512 3.1139 10.2381 3.35169 12.1944C0.624207 15.1775 0.663564 16.9445 1.19588 17.9132C1.69768 18.832 2.7446 19.2311 4.12211 19.2311C5.07853 19.2103 6.02932 19.0708 6.95487 18.8154C8.4339 20.018 10.217 20.7308 12.0792 20.8638C13.9414 20.9967 15.7991 20.544 17.4179 19.5626C19.0367 18.5813 20.344 17.1153 21.1748 15.3498C22.0056 13.5843 22.3226 11.5983 22.0859 9.64264C23.3168 8.29142 24.1354 7.00776 24.4139 5.90911C24.6068 5.14826 24.5487 4.47889 24.2407 3.91865ZM22.8937 5.47775C22.2925 7.84551 18.1068 11.4346 14.2823 13.7556C7.61018 17.8092 3.10275 18.0712 2.55765 17.0817C2.41399 16.8208 2.49369 16.3291 2.77608 15.7304C3.05573 15.17 3.3951 14.6452 3.78757 14.1661C3.95379 14.6741 4.1588 15.1671 4.40057 15.64C4.43742 15.7144 4.49475 15.7753 4.56501 15.8147C4.63526 15.854 4.71515 15.8699 4.79414 15.8604C5.35709 15.7871 5.91441 15.6718 6.46192 15.5153C8.55082 14.9384 11.05 13.8023 13.4991 12.316C15.9481 10.8296 18.1236 9.12918 19.6438 7.51914C20.0437 7.10111 20.4155 6.65412 20.7566 6.18143C20.8039 6.11405 20.8309 6.03311 20.8339 5.94926C20.8368 5.86541 20.8157 5.78257 20.7733 5.71162C20.5082 5.25524 20.2088 4.82214 19.8779 4.41652C21.2761 4.17226 22.571 4.19097 22.879 4.75329C22.9695 4.91648 22.9744 5.16074 22.8937 5.47879V5.47775Z" fill="#9DB2CE"/>
</svg>
