<svg width="20" height="19" viewBox="0 0 20 19" fill="none" xmlns="http://www.w3.org/2000/svg">
<path d="M11.8039 12.2044C12.0699 12.2044 12.3009 12.1117 12.4969 11.9261C12.6928 11.7405 12.7905 11.5211 12.7899 11.2677C12.7892 11.0144 12.6916 10.7952 12.4969 10.6103C12.3022 10.4253 12.0712 10.3322 11.8039 10.331C11.5365 10.3298 11.3058 10.4229 11.1118 10.6103C10.9177 10.7976 10.8197 11.0168 10.8178 11.2677C10.816 11.5187 10.9139 11.7382 11.1118 11.9261C11.3096 12.114 11.5403 12.2068 11.8039 12.2044ZM11.0996 9.34971H12.5081C12.5081 8.91852 12.5551 8.60272 12.649 8.40229C12.7429 8.20186 12.962 7.9378 13.3063 7.6101C13.7759 7.16405 14.0889 6.80364 14.2454 6.52887C14.4019 6.2541 14.4802 5.93056 14.4802 5.55826C14.4802 4.88918 14.2335 4.34291 13.7402 3.91946C13.2469 3.49601 12.6014 3.28399 11.8039 3.28339C11.1622 3.28339 10.6028 3.45438 10.1258 3.79635C9.64872 4.13832 9.31598 4.59181 9.12754 5.15681L10.3953 5.64747C10.5361 5.27576 10.728 4.99712 10.9709 4.81157C11.2138 4.62601 11.4915 4.53293 11.8039 4.53234C12.1795 4.53234 12.4847 4.63285 12.7194 4.83387C12.9542 5.03489 13.0716 5.30609 13.0716 5.64747C13.0716 5.85563 13.009 6.05278 12.8838 6.23894C12.7586 6.42509 12.5394 6.65912 12.2264 6.94102C11.7099 7.37221 11.3932 7.71061 11.2761 7.95624C11.159 8.20186 11.1002 8.66635 11.0996 9.34971ZM6.16951 14.8808C5.65302 14.8808 5.21104 14.7062 4.84356 14.3571C4.47607 14.008 4.29202 13.5878 4.29139 13.0965V2.39129C4.29139 1.90063 4.47544 1.48074 4.84356 1.13163C5.21167 0.782522 5.65365 0.607669 6.16951 0.607075H17.4382C17.9547 0.607075 18.397 0.781927 18.7651 1.13163C19.1332 1.48134 19.3169 1.90122 19.3163 2.39129V13.0965C19.3163 13.5872 19.1326 14.0074 18.7651 14.3571C18.3976 14.7068 17.9553 14.8814 17.4382 14.8808H6.16951ZM2.41327 18.4492C1.89679 18.4492 1.45481 18.2746 1.08732 17.9255C0.719838 17.5764 0.535782 17.1562 0.535156 16.665V4.1755H2.41327V16.665H15.5601V18.4492H2.41327Z" fill="#9DB2CE"/>
</svg>
