<svg width="17" height="18" viewBox="0 0 17 18" fill="none" xmlns="http://www.w3.org/2000/svg">
<path fill-rule="evenodd" clip-rule="evenodd" d="M10.0158 0.733365C9.7084 0.607071 9.31789 0.607071 8.53769 0.607071C7.75749 0.607071 7.36781 0.607071 7.05955 0.733365C6.85672 0.816242 6.67228 0.938412 6.51685 1.09284C6.36142 1.24728 6.23807 1.43092 6.15389 1.63321C6.07578 1.8185 6.04587 2.03536 6.03341 2.35026C6.02748 2.57834 5.96367 2.80117 5.84798 2.99781C5.73229 3.19446 5.56851 3.35847 5.37203 3.47445C5.17157 3.58587 4.94624 3.6449 4.7169 3.64606C4.48756 3.64722 4.26164 3.59048 4.06006 3.48109C3.77922 3.3332 3.57566 3.25177 3.37458 3.22518C2.9347 3.16779 2.48992 3.286 2.13657 3.55421C1.87235 3.75528 1.67709 4.09096 1.28741 4.76148C0.896893 5.432 0.702467 5.76685 0.65843 6.09505C0.600268 6.53209 0.719915 6.97412 0.990783 7.32392C1.11375 7.48345 1.28741 7.61723 1.55578 7.78506C1.95211 8.03184 2.20636 8.45226 2.20636 8.91589C2.20636 9.37953 1.95211 9.79995 1.55661 10.0459C1.28741 10.2146 1.11375 10.3483 0.989952 10.5079C0.856651 10.6809 0.758759 10.8784 0.701873 11.0893C0.644988 11.3002 0.630226 11.5202 0.65843 11.7367C0.702467 12.0641 0.896893 12.3998 1.28741 13.0703C1.67792 13.7408 1.87235 14.0757 2.13657 14.2776C2.48886 14.546 2.93422 14.6639 3.37458 14.6066C3.57566 14.58 3.77922 14.4986 4.06006 14.3507C4.26174 14.2412 4.48781 14.1843 4.71731 14.1855C4.94681 14.1867 5.1723 14.2458 5.37286 14.3573C5.77667 14.59 6.01596 15.0179 6.03341 15.4815C6.04587 15.7973 6.07578 16.0133 6.15389 16.1986C6.32339 16.6057 6.64909 16.9298 7.05955 17.0984C7.36697 17.2247 7.75749 17.2247 8.53769 17.2247C9.31789 17.2247 9.7084 17.2247 10.0158 17.0984C10.2187 17.0155 10.4031 16.8934 10.5585 16.7389C10.714 16.5845 10.8373 16.4009 10.9215 16.1986C10.9996 16.0133 11.0295 15.7973 11.042 15.4815C11.0586 15.0179 11.2987 14.5892 11.7033 14.3573C11.9038 14.2459 12.1291 14.1869 12.3585 14.1857C12.5878 14.1846 12.8137 14.2413 13.0153 14.3507C13.2962 14.4986 13.4997 14.58 13.7008 14.6066C14.1412 14.6648 14.5865 14.546 14.9388 14.2776C15.203 14.0765 15.3983 13.7408 15.788 13.0703C16.1785 12.3998 16.3729 12.0649 16.4169 11.7367C16.445 11.5201 16.4301 11.3001 16.3731 11.0892C16.3161 10.8784 16.218 10.6808 16.0846 10.5079C15.9616 10.3483 15.788 10.2146 15.5196 10.0467C15.1233 9.79995 14.869 9.37953 14.869 8.91589C14.869 8.45226 15.1233 8.03184 15.5188 7.78589C15.788 7.61723 15.9616 7.48345 16.0854 7.32392C16.2187 7.15092 16.3166 6.95335 16.3735 6.74249C16.4304 6.53162 16.4451 6.31162 16.4169 6.09505C16.3729 5.76768 16.1785 5.432 15.788 4.76148C15.3975 4.09096 15.203 3.75612 14.9388 3.55421C14.5855 3.286 14.1407 3.16779 13.7008 3.22518C13.4997 3.25177 13.2962 3.3332 13.0153 3.48109C12.8136 3.59063 12.5876 3.64745 12.3581 3.64629C12.1286 3.64513 11.9031 3.58602 11.7025 3.47445C11.5062 3.35837 11.3426 3.19432 11.227 2.99768C11.1115 2.80104 11.0478 2.57826 11.042 2.35026C11.0295 2.03453 10.9996 1.8185 10.9215 1.63321C10.8373 1.43092 10.714 1.24728 10.5585 1.09284C10.4031 0.938412 10.2187 0.816242 10.0158 0.733365ZM8.53769 11.4085C9.92526 11.4085 11.0494 10.2927 11.0494 8.91589C11.0494 7.53912 9.92443 6.42325 8.53769 6.42325C7.15095 6.42325 6.02593 7.53912 6.02593 8.91589C6.02593 10.2927 7.15095 11.4085 8.53769 11.4085Z" fill="#9DB2CE"/>
</svg>
